<mxfile host="www.draw.io" modified="2019-10-24T11:30:17.979Z" agent="Mozilla/5.0 (Windows NT 10.0; Win64; x64) AppleWebKit/537.36 (KHTML, like Gecko) Chrome/77.0.3865.120 Safari/537.36" etag="e-aZmir9QWfIjucHw09V" version="12.1.4" type="github" pages="1">
  <diagram id="vfMCX9l5Syy2avr2LAS5" name="Page-1">
    <mxGraphModel dx="1024" dy="644" grid="1" gridSize="10" guides="1" tooltips="1" connect="1" arrows="1" fold="1" page="1" pageScale="1" pageWidth="2339" pageHeight="3300" math="0" shadow="0">
      <root>
        <mxCell id="0"/>
        <mxCell id="1" parent="0"/>
        <mxCell id="5Sp0X7Y_yR77ZQIhQtab-1" style="edgeStyle=elbowEdgeStyle;rounded=0;orthogonalLoop=1;jettySize=auto;elbow=vertical;html=1;startArrow=none;startFill=0;endArrow=none;endFill=0;strokeColor=#d6b656;strokeWidth=2;fontColor=#66B2FF;fillColor=#fff2cc;" parent="1" source="5Sp0X7Y_yR77ZQIhQtab-5" edge="1">
          <mxGeometry relative="1" as="geometry">
            <mxPoint x="191" y="153" as="targetPoint"/>
          </mxGeometry>
        </mxCell>
        <mxCell id="5Sp0X7Y_yR77ZQIhQtab-2" value="消费消息" style="text;html=1;resizable=0;points=[];align=center;verticalAlign=middle;labelBackgroundColor=#ffffff;fontColor=#000000;" parent="5Sp0X7Y_yR77ZQIhQtab-1" vertex="1" connectable="0">
          <mxGeometry x="0.2579" y="1" relative="1" as="geometry">
            <mxPoint as="offset"/>
          </mxGeometry>
        </mxCell>
        <mxCell id="5Sp0X7Y_yR77ZQIhQtab-3" style="edgeStyle=elbowEdgeStyle;rounded=0;orthogonalLoop=1;jettySize=auto;elbow=vertical;html=1;startArrow=none;startFill=0;endArrow=classicThin;endFill=1;strokeColor=#d6b656;strokeWidth=1;fontColor=#66B2FF;fillColor=#fff2cc;" parent="1" source="5Sp0X7Y_yR77ZQIhQtab-5" target="5Sp0X7Y_yR77ZQIhQtab-17" edge="1">
          <mxGeometry relative="1" as="geometry">
            <Array as="points">
              <mxPoint x="414.5" y="266"/>
              <mxPoint x="414.5" y="246"/>
            </Array>
          </mxGeometry>
        </mxCell>
        <mxCell id="5Sp0X7Y_yR77ZQIhQtab-4" value="查找server地址" style="text;html=1;resizable=0;points=[];align=center;verticalAlign=middle;labelBackgroundColor=#ffffff;fontColor=#000000;" parent="5Sp0X7Y_yR77ZQIhQtab-3" vertex="1" connectable="0">
          <mxGeometry x="-0.3619" y="-1" relative="1" as="geometry">
            <mxPoint as="offset"/>
          </mxGeometry>
        </mxCell>
        <mxCell id="5Sp0X7Y_yR77ZQIhQtab-5" value="" style="rounded=0;whiteSpace=wrap;html=1;strokeColor=#6c8ebf;fillColor=#dae8fc;" parent="1" vertex="1">
          <mxGeometry x="95" y="229" width="196" height="81" as="geometry"/>
        </mxCell>
        <mxCell id="5Sp0X7Y_yR77ZQIhQtab-6" style="edgeStyle=orthogonalEdgeStyle;rounded=0;orthogonalLoop=1;jettySize=auto;html=1;startArrow=none;startFill=0;endArrow=classic;endFill=1;strokeColor=#66B2FF;fontColor=#B9E0A5;strokeWidth=1;fillColor=#dae8fc;" parent="1" source="5Sp0X7Y_yR77ZQIhQtab-11" edge="1">
          <mxGeometry relative="1" as="geometry">
            <mxPoint x="960" y="390" as="targetPoint"/>
            <Array as="points">
              <mxPoint x="960" y="478"/>
            </Array>
          </mxGeometry>
        </mxCell>
        <mxCell id="5Sp0X7Y_yR77ZQIhQtab-7" value="注册节点" style="text;html=1;resizable=0;points=[];align=center;verticalAlign=middle;labelBackgroundColor=#ffffff;fontColor=#000000;" parent="5Sp0X7Y_yR77ZQIhQtab-6" vertex="1" connectable="0">
          <mxGeometry x="-0.4691" y="4" relative="1" as="geometry">
            <mxPoint as="offset"/>
          </mxGeometry>
        </mxCell>
        <mxCell id="5Sp0X7Y_yR77ZQIhQtab-8" style="edgeStyle=elbowEdgeStyle;rounded=0;orthogonalLoop=1;jettySize=auto;elbow=vertical;html=1;entryX=1;entryY=0.5;entryDx=0;entryDy=0;entryPerimeter=0;startArrow=none;startFill=0;endArrow=none;endFill=0;strokeColor=#66B2FF;strokeWidth=1;fontColor=#9AC7BF;" parent="1" source="5Sp0X7Y_yR77ZQIhQtab-11" target="5Sp0X7Y_yR77ZQIhQtab-44" edge="1">
          <mxGeometry relative="1" as="geometry">
            <Array as="points">
              <mxPoint x="860" y="552"/>
            </Array>
          </mxGeometry>
        </mxCell>
        <mxCell id="5Sp0X7Y_yR77ZQIhQtab-9" style="edgeStyle=elbowEdgeStyle;rounded=0;orthogonalLoop=1;jettySize=auto;elbow=vertical;html=1;startArrow=none;startFill=0;endArrow=none;endFill=0;strokeColor=#66B2FF;strokeWidth=1;fontColor=#66B2FF;entryX=1;entryY=0.5;entryDx=0;entryDy=0;" parent="1" source="5Sp0X7Y_yR77ZQIhQtab-11" target="5Sp0X7Y_yR77ZQIhQtab-17" edge="1">
          <mxGeometry relative="1" as="geometry">
            <mxPoint x="440" y="386" as="targetPoint"/>
            <Array as="points">
              <mxPoint x="623" y="360"/>
              <mxPoint x="623" y="370"/>
              <mxPoint x="623" y="400"/>
              <mxPoint x="550" y="370"/>
              <mxPoint x="530" y="386"/>
            </Array>
          </mxGeometry>
        </mxCell>
        <mxCell id="5Sp0X7Y_yR77ZQIhQtab-10" value="存储关系" style="text;html=1;resizable=0;points=[];align=center;verticalAlign=middle;labelBackgroundColor=#ffffff;fontColor=#000000;" parent="5Sp0X7Y_yR77ZQIhQtab-9" vertex="1" connectable="0">
          <mxGeometry x="0.4777" y="-2" relative="1" as="geometry">
            <mxPoint as="offset"/>
          </mxGeometry>
        </mxCell>
        <mxCell id="5Sp0X7Y_yR77ZQIhQtab-11" value="" style="rounded=0;whiteSpace=wrap;html=1;fillColor=#ffe6cc;strokeColor=#d79b00;" parent="1" vertex="1">
          <mxGeometry x="502.5" y="440" width="240" height="75" as="geometry"/>
        </mxCell>
        <mxCell id="5Sp0X7Y_yR77ZQIhQtab-12" style="edgeStyle=none;rounded=0;orthogonalLoop=1;jettySize=auto;html=1;strokeColor=#66B2FF;fontColor=#B9E0A5;strokeWidth=1;" parent="1" edge="1">
          <mxGeometry relative="1" as="geometry">
            <mxPoint x="960" y="310" as="targetPoint"/>
            <Array as="points">
              <mxPoint x="960" y="240"/>
            </Array>
            <mxPoint x="738" y="240" as="sourcePoint"/>
          </mxGeometry>
        </mxCell>
        <mxCell id="5Sp0X7Y_yR77ZQIhQtab-13" value="&lt;font&gt;获取可用服务&lt;/font&gt;" style="text;html=1;resizable=0;points=[];align=center;verticalAlign=middle;labelBackgroundColor=#ffffff;fontColor=#000000;" parent="5Sp0X7Y_yR77ZQIhQtab-12" vertex="1" connectable="0">
          <mxGeometry x="-0.374" y="-1" relative="1" as="geometry">
            <mxPoint as="offset"/>
          </mxGeometry>
        </mxCell>
        <mxCell id="5Sp0X7Y_yR77ZQIhQtab-14" value="" style="rounded=0;whiteSpace=wrap;html=1;fillColor=#d5e8d4;strokeColor=#82b366;" parent="1" vertex="1">
          <mxGeometry x="520" y="210" width="215" height="70" as="geometry"/>
        </mxCell>
        <mxCell id="5Sp0X7Y_yR77ZQIhQtab-15" style="edgeStyle=elbowEdgeStyle;rounded=0;orthogonalLoop=1;jettySize=auto;elbow=vertical;html=1;exitX=0;exitY=0.5;exitDx=0;exitDy=0;startArrow=none;startFill=0;endArrow=classicThin;endFill=1;strokeColor=#d6b656;strokeWidth=1;fontColor=#66B2FF;fillColor=#fff2cc;" parent="1" source="5Sp0X7Y_yR77ZQIhQtab-17" edge="1">
          <mxGeometry relative="1" as="geometry">
            <mxPoint x="260" y="470" as="targetPoint"/>
            <Array as="points">
              <mxPoint x="260" y="363"/>
            </Array>
          </mxGeometry>
        </mxCell>
        <mxCell id="5Sp0X7Y_yR77ZQIhQtab-16" value="返回服务地址" style="text;html=1;resizable=0;points=[];align=center;verticalAlign=middle;labelBackgroundColor=#ffffff;fontColor=#000000;" parent="5Sp0X7Y_yR77ZQIhQtab-15" vertex="1" connectable="0">
          <mxGeometry x="0.4036" y="-1" relative="1" as="geometry">
            <mxPoint as="offset"/>
          </mxGeometry>
        </mxCell>
        <mxCell id="5Sp0X7Y_yR77ZQIhQtab-17" value="" style="rounded=0;whiteSpace=wrap;html=1;fillColor=#f8cecc;strokeColor=#b85450;" parent="1" vertex="1">
          <mxGeometry x="329.5" y="325.5" width="170" height="74" as="geometry"/>
        </mxCell>
        <mxCell id="5Sp0X7Y_yR77ZQIhQtab-18" value="" style="aspect=fixed;html=1;points=[];align=center;image;fontSize=12;image=img/lib/mscae/Cache_Redis_Product.svg;" parent="1" vertex="1">
          <mxGeometry x="359.5" y="348.5" width="50" height="42" as="geometry"/>
        </mxCell>
        <mxCell id="5Sp0X7Y_yR77ZQIhQtab-19" value="" style="aspect=fixed;html=1;points=[];align=center;image;fontSize=12;image=img/lib/mscae/Cache_Redis_Product.svg;" parent="1" vertex="1">
          <mxGeometry x="429.5" y="348.5" width="50" height="42" as="geometry"/>
        </mxCell>
        <mxCell id="5Sp0X7Y_yR77ZQIhQtab-20" value="Redis" style="text;html=1;strokeColor=none;fillColor=none;align=center;verticalAlign=middle;whiteSpace=wrap;rounded=0;" parent="1" vertex="1">
          <mxGeometry x="339.5" y="328.5" width="40" height="20" as="geometry"/>
        </mxCell>
        <mxCell id="5Sp0X7Y_yR77ZQIhQtab-21" value="Server Router" style="text;html=1;strokeColor=none;fillColor=none;align=center;verticalAlign=middle;whiteSpace=wrap;rounded=0;fontColor=#97D077;" parent="1" vertex="1">
          <mxGeometry x="529.5" y="210" width="80" height="20" as="geometry"/>
        </mxCell>
        <mxCell id="5Sp0X7Y_yR77ZQIhQtab-22" value="" style="endArrow=classic;html=1;fontColor=#97D077;entryX=0.5;entryY=0;entryDx=0;entryDy=0;fillColor=#fff2cc;strokeColor=#66B2FF;strokeWidth=1;" parent="1" edge="1">
          <mxGeometry width="50" height="50" relative="1" as="geometry">
            <mxPoint x="574" y="170" as="sourcePoint"/>
            <mxPoint x="574" y="210" as="targetPoint"/>
          </mxGeometry>
        </mxCell>
        <mxCell id="5Sp0X7Y_yR77ZQIhQtab-23" value="" style="endArrow=classic;html=1;fontColor=#B9E0A5;entryX=0.5;entryY=0;entryDx=0;entryDy=0;fillColor=#fff2cc;strokeColor=#66B2FF;strokeWidth=1;" parent="1" edge="1">
          <mxGeometry width="50" height="50" relative="1" as="geometry">
            <mxPoint x="674.5" y="172" as="sourcePoint"/>
            <mxPoint x="674" y="210" as="targetPoint"/>
          </mxGeometry>
        </mxCell>
        <mxCell id="5Sp0X7Y_yR77ZQIhQtab-24" value="" style="aspect=fixed;pointerEvents=1;shadow=0;dashed=0;html=1;strokeColor=#d6b656;labelPosition=center;verticalLabelPosition=bottom;verticalAlign=top;align=center;fillColor=#fff2cc;shape=mxgraph.mscae.enterprise.web_server;" parent="1" vertex="1">
          <mxGeometry x="563" y="452" width="38" height="50" as="geometry"/>
        </mxCell>
        <mxCell id="5Sp0X7Y_yR77ZQIhQtab-25" value="" style="aspect=fixed;pointerEvents=1;shadow=0;dashed=0;html=1;strokeColor=#d6b656;labelPosition=center;verticalLabelPosition=bottom;verticalAlign=top;align=center;fillColor=#fff2cc;shape=mxgraph.mscae.enterprise.web_server;" parent="1" vertex="1">
          <mxGeometry x="618.5" y="452" width="38" height="50" as="geometry"/>
        </mxCell>
        <mxCell id="5Sp0X7Y_yR77ZQIhQtab-26" value="" style="aspect=fixed;pointerEvents=1;shadow=0;dashed=0;html=1;strokeColor=#d6b656;labelPosition=center;verticalLabelPosition=bottom;verticalAlign=top;align=center;fillColor=#fff2cc;shape=mxgraph.mscae.enterprise.web_server;" parent="1" vertex="1">
          <mxGeometry x="674" y="452" width="38" height="50" as="geometry"/>
        </mxCell>
        <mxCell id="5Sp0X7Y_yR77ZQIhQtab-27" value="Socket&lt;br&gt;Server" style="text;html=1;strokeColor=none;fillColor=none;align=center;verticalAlign=middle;whiteSpace=wrap;rounded=0;fontColor=#D79B00;" parent="1" vertex="1">
          <mxGeometry x="507.5" y="442" width="45" height="30" as="geometry"/>
        </mxCell>
        <mxCell id="5Sp0X7Y_yR77ZQIhQtab-28" value="zookeeper" style="text;html=1;strokeColor=none;fillColor=#f8cecc;align=center;verticalAlign=middle;whiteSpace=wrap;rounded=0;" parent="1" vertex="1">
          <mxGeometry x="870" y="314" width="70" height="17" as="geometry"/>
        </mxCell>
        <mxCell id="5Sp0X7Y_yR77ZQIhQtab-29" style="edgeStyle=orthogonalEdgeStyle;rounded=0;orthogonalLoop=1;jettySize=auto;html=1;entryX=1;entryY=0.25;entryDx=0;entryDy=0;startArrow=none;startFill=0;endArrow=classic;endFill=1;strokeColor=#66B2FF;fontColor=#9AC7BF;strokeWidth=1;" parent="1" source="5Sp0X7Y_yR77ZQIhQtab-31" target="5Sp0X7Y_yR77ZQIhQtab-11" edge="1">
          <mxGeometry relative="1" as="geometry">
            <Array as="points">
              <mxPoint x="780" y="360"/>
              <mxPoint x="780" y="459"/>
            </Array>
          </mxGeometry>
        </mxCell>
        <mxCell id="5Sp0X7Y_yR77ZQIhQtab-30" value="选择服务器" style="text;html=1;resizable=0;points=[];align=center;verticalAlign=middle;labelBackgroundColor=#ffffff;fontColor=#000000;" parent="5Sp0X7Y_yR77ZQIhQtab-29" vertex="1" connectable="0">
          <mxGeometry x="-0.0381" y="1" relative="1" as="geometry">
            <mxPoint as="offset"/>
          </mxGeometry>
        </mxCell>
        <mxCell id="5Sp0X7Y_yR77ZQIhQtab-31" value="" style="shape=image;imageAspect=0;aspect=fixed;verticalLabelPosition=bottom;verticalAlign=top;fillColor=#ffffff;fontColor=#B9E0A5;image=https://zookeeper.apache.org/images/zookeeper_small.gif;" parent="1" vertex="1">
          <mxGeometry x="930" y="316" width="49" height="70" as="geometry"/>
        </mxCell>
        <mxCell id="5Sp0X7Y_yR77ZQIhQtab-32" value="发起连接" style="text;html=1;strokeColor=none;fillColor=none;align=center;verticalAlign=middle;whiteSpace=wrap;rounded=0;fontColor=#000000;labelBackgroundColor=#ffffff;" parent="1" vertex="1">
          <mxGeometry x="684" y="176" width="68" height="20" as="geometry"/>
        </mxCell>
        <mxCell id="5Sp0X7Y_yR77ZQIhQtab-33" value="" style="aspect=fixed;html=1;points=[];align=center;image;fontSize=12;image=img/lib/mscae/Application_Gateway.svg;strokeColor=#000000;fillColor=#ffffff;" parent="1" vertex="1">
          <mxGeometry x="544.5" y="226" width="50" height="50" as="geometry"/>
        </mxCell>
        <mxCell id="5Sp0X7Y_yR77ZQIhQtab-34" value="" style="aspect=fixed;html=1;points=[];align=center;image;fontSize=12;image=img/lib/mscae/Application_Gateway.svg;strokeColor=#000000;fillColor=#ffffff;" parent="1" vertex="1">
          <mxGeometry x="606.5" y="226" width="50" height="50" as="geometry"/>
        </mxCell>
        <mxCell id="5Sp0X7Y_yR77ZQIhQtab-35" value="" style="aspect=fixed;html=1;points=[];align=center;image;fontSize=12;image=img/lib/mscae/Application_Gateway.svg;strokeColor=#000000;fillColor=#ffffff;" parent="1" vertex="1">
          <mxGeometry x="668" y="226" width="50" height="50" as="geometry"/>
        </mxCell>
        <mxCell id="4_p_f_oB2oGCED_HuFpa-1" style="edgeStyle=orthogonalEdgeStyle;rounded=0;orthogonalLoop=1;jettySize=auto;html=1;strokeColor=#66B2FF;endArrow=none;endFill=0;entryX=0;entryY=0.5;entryDx=0;entryDy=0;entryPerimeter=0;" parent="1" source="5Sp0X7Y_yR77ZQIhQtab-37" target="5Sp0X7Y_yR77ZQIhQtab-44" edge="1">
          <mxGeometry relative="1" as="geometry">
            <mxPoint x="1050" y="100" as="targetPoint"/>
            <Array as="points">
              <mxPoint x="572" y="100"/>
              <mxPoint x="1048" y="100"/>
            </Array>
          </mxGeometry>
        </mxCell>
        <mxCell id="5Sp0X7Y_yR77ZQIhQtab-37" value="" style="aspect=fixed;html=1;points=[];align=center;image;fontSize=12;image=img/lib/mscae/Virtual_Machine.svg;strokeColor=#000000;fillColor=#ffffff;" parent="1" vertex="1">
          <mxGeometry x="552.5" y="140" width="39" height="36" as="geometry"/>
        </mxCell>
        <mxCell id="4_p_f_oB2oGCED_HuFpa-3" style="edgeStyle=orthogonalEdgeStyle;rounded=0;orthogonalLoop=1;jettySize=auto;html=1;startArrow=none;startFill=0;endArrow=none;endFill=0;strokeColor=#66B2FF;" parent="1" source="5Sp0X7Y_yR77ZQIhQtab-39" edge="1">
          <mxGeometry relative="1" as="geometry">
            <mxPoint x="673.5" y="100" as="targetPoint"/>
          </mxGeometry>
        </mxCell>
        <mxCell id="5Sp0X7Y_yR77ZQIhQtab-39" value="" style="aspect=fixed;html=1;points=[];align=center;image;fontSize=12;image=img/lib/mscae/Virtual_Machine.svg;strokeColor=#000000;fillColor=#ffffff;" parent="1" vertex="1">
          <mxGeometry x="654" y="140" width="39" height="36" as="geometry"/>
        </mxCell>
        <mxCell id="5Sp0X7Y_yR77ZQIhQtab-40" value="kafka" style="strokeWidth=2;html=1;shape=mxgraph.flowchart.direct_data;whiteSpace=wrap;fillColor=#fff2cc;strokeColor=#d6b656;" parent="1" vertex="1">
          <mxGeometry x="141.5" y="103" width="180" height="48" as="geometry"/>
        </mxCell>
        <mxCell id="5Sp0X7Y_yR77ZQIhQtab-41" value="" style="html=1;shadow=0;dashed=0;align=center;verticalAlign=middle;shape=mxgraph.arrows2.arrow;dy=0.67;dx=20;notch=0;strokeColor=#d6b656;fillColor=#fff2cc;rotation=90;direction=south;" parent="1" vertex="1">
          <mxGeometry x="354.5" y="87" width="30" height="80" as="geometry"/>
        </mxCell>
        <mxCell id="5Sp0X7Y_yR77ZQIhQtab-42" value="TCP推送管道" style="text;html=1;strokeColor=#d6b656;fillColor=#fff2cc;align=center;verticalAlign=middle;whiteSpace=wrap;rounded=0;fontColor=#D79B00;" parent="1" vertex="1">
          <mxGeometry x="261.5" y="490" width="93" height="32" as="geometry"/>
        </mxCell>
        <mxCell id="5Sp0X7Y_yR77ZQIhQtab-43" value="&lt;font&gt;推送消息&lt;/font&gt;" style="text;html=1;strokeColor=none;fillColor=none;align=center;verticalAlign=middle;whiteSpace=wrap;rounded=0;fontColor=#000000;labelBackgroundColor=#ffffff;" parent="1" vertex="1">
          <mxGeometry x="364.5" y="93" width="50" height="20" as="geometry"/>
        </mxCell>
        <mxCell id="5Sp0X7Y_yR77ZQIhQtab-44" value="" style="html=1;shadow=0;dashed=0;align=center;verticalAlign=middle;shape=mxgraph.arrows2.twoWayArrow;dy=0.65;dx=22;strokeColor=#000000;fillColor=#99FFFF;fontColor=#9AC7BF;rotation=90;" parent="1" vertex="1">
          <mxGeometry x="830" y="311" width="435" height="46" as="geometry"/>
        </mxCell>
        <mxCell id="5Sp0X7Y_yR77ZQIhQtab-45" value="TCP长链接管道&lt;br&gt;" style="text;html=1;strokeColor=#6c8ebf;fillColor=#99FFFF;align=center;verticalAlign=middle;whiteSpace=wrap;rounded=0;" parent="1" vertex="1">
          <mxGeometry x="1070" y="264" width="60" height="54" as="geometry"/>
        </mxCell>
        <mxCell id="5Sp0X7Y_yR77ZQIhQtab-46" value="发起连接" style="text;html=1;strokeColor=none;fillColor=none;align=center;verticalAlign=middle;whiteSpace=wrap;rounded=0;fontColor=#000000;labelBackgroundColor=#ffffff;" parent="1" vertex="1">
          <mxGeometry x="582" y="176" width="68" height="20" as="geometry"/>
        </mxCell>
        <mxCell id="5Sp0X7Y_yR77ZQIhQtab-47" value="" style="aspect=fixed;html=1;points=[];align=center;image;fontSize=12;image=img/lib/mscae/Cloud_Services_Classic.svg;strokeColor=#000000;fillColor=none;imageBackground=none;" parent="1" vertex="1">
          <mxGeometry x="116.5" y="253" width="50" height="42" as="geometry"/>
        </mxCell>
        <mxCell id="5Sp0X7Y_yR77ZQIhQtab-48" value="" style="aspect=fixed;html=1;points=[];align=center;image;fontSize=12;image=img/lib/mscae/Cloud_Services_Classic.svg;strokeColor=#000000;fillColor=none;" parent="1" vertex="1">
          <mxGeometry x="176.5" y="253" width="50" height="42" as="geometry"/>
        </mxCell>
        <mxCell id="5Sp0X7Y_yR77ZQIhQtab-49" value="" style="aspect=fixed;html=1;points=[];align=center;image;fontSize=12;image=img/lib/mscae/Cloud_Services_Classic.svg;strokeColor=#000000;fillColor=none;" parent="1" vertex="1">
          <mxGeometry x="231.5" y="253" width="50" height="42" as="geometry"/>
        </mxCell>
        <mxCell id="5Sp0X7Y_yR77ZQIhQtab-50" value="push server" style="text;html=1;strokeColor=none;fillColor=none;align=center;verticalAlign=middle;whiteSpace=wrap;rounded=0;fontColor=#66B2FF;" parent="1" vertex="1">
          <mxGeometry x="94.5" y="233" width="72" height="20" as="geometry"/>
        </mxCell>
        <mxCell id="5Sp0X7Y_yR77ZQIhQtab-52" style="edgeStyle=elbowEdgeStyle;rounded=0;orthogonalLoop=1;jettySize=auto;elbow=vertical;html=1;exitX=0.5;exitY=0;exitDx=0;exitDy=0;startArrow=none;startFill=0;endArrow=none;endFill=0;strokeColor=#66B2FF;strokeWidth=2;fontColor=#FFD966;" parent="1" source="5Sp0X7Y_yR77ZQIhQtab-43" target="5Sp0X7Y_yR77ZQIhQtab-43" edge="1">
          <mxGeometry relative="1" as="geometry"/>
        </mxCell>
        <mxCell id="4_p_f_oB2oGCED_HuFpa-4" value="" style="html=1;shadow=0;dashed=0;align=center;verticalAlign=middle;shape=mxgraph.arrows2.bendDoubleArrow;dy=5;dx=15;arrowHead=30;rounded=1;labelBackgroundColor=#ffffff;fillColor=#FFF2CC;fontColor=#D79B00;direction=north;strokeColor=#D6B656;strokeWidth=1;" parent="1" vertex="1">
          <mxGeometry x="135.5" y="318" width="367" height="172" as="geometry"/>
        </mxCell>
        <mxCell id="4_p_f_oB2oGCED_HuFpa-5" value="" style="html=1;shadow=0;dashed=0;align=center;verticalAlign=middle;shape=mxgraph.arrows2.arrow;dy=0.67;dx=20;direction=south;notch=0;labelBackgroundColor=#ffffff;strokeColor=#D6B656;strokeWidth=1;fillColor=#FFF2CC;fontColor=#D79B00;" parent="1" vertex="1">
          <mxGeometry x="100" y="150" width="24" height="77" as="geometry"/>
        </mxCell>
        <mxCell id="4_p_f_oB2oGCED_HuFpa-8" value="http消息" style="text;html=1;strokeColor=none;fillColor=none;align=center;verticalAlign=middle;whiteSpace=wrap;rounded=0;labelBackgroundColor=#ffffff;fontColor=#000000;" parent="1" vertex="1">
          <mxGeometry x="50" y="169" width="50" height="20" as="geometry"/>
        </mxCell>
      </root>
    </mxGraphModel>
  </diagram>
</mxfile>
